<?xml version="1.0" encoding="UTF-8"?>
<svg id="Layer_1" data-name="Layer 1" xmlns="http://www.w3.org/2000/svg" viewBox="0 0 103 27.22">
  <defs>
    <style>
      .cls-1 {
        fill: #fff;
      }

      .cls-2 {
        opacity: .16;
      }

      .cls-3 {
        opacity: .25;
      }
    </style>
  </defs>
  <g class="cls-3">
    <g class="cls-3">
      <path class="cls-1" d="m19.27,15.89V0h6.51c-.54.04-1.08.07-1.63.09-.55.02-1.08.06-1.62.07-.54.02-1.09.04-1.63.05l-1.36.04c.02,1.24.04,2.48.04,3.72,0,.66,0,1.32,0,1.99s0,1.32-.02,1.99l-.04,1.98c-.02.66-.03,1.33-.06,1.99-.02.66-.05,1.33-.08,1.99-.03.66-.06,1.33-.11,1.99Z"/>
    </g>
  </g>
  <g>
    <path class="cls-1" d="m13.3,1.49c-1.9,1.75-3.2,4.05-3.75,6.57-.06-.13-.14-.26-.24-.36-.1-.1-.23-.18-.36-.24-.28-.11-.6-.11-.89,0-.14.05-.26.14-.36.24-.1.1-.18.23-.24.36-.06.14-.09.29-.08.44v18.49H0V8.51c0-1.14.22-2.27.67-3.32C1.52,3.15,3.15,1.53,5.19.67,6.04.31,6.95.09,7.88.03c.02,0,.03,0,.05,0,1.08-.07,2.17.06,3.2.39.14.04.28.09.42.15.62.24,1.21.55,1.75.92Z"/>
    <path class="cls-1" d="m26.64,8.51v18.49h-7.36V8.51c0-.15-.03-.29-.08-.42-.06-.14-.15-.27-.26-.38-.1-.1-.23-.18-.36-.24-.29-.11-.6-.11-.89,0-.14.05-.26.14-.36.24-.1.1-.19.23-.24.36-.06.14-.08.29-.08.44v18.49h-7.38V8.51c0-.15-.03-.3-.08-.44.55-2.52,1.86-4.82,3.75-6.57,0,0,.02.01.03.02.23-.16.46-.3.7-.44,0,0,.02-.01.03-.01.01,0,.03-.01.04-.02.32-.18.65-.33.99-.47,2.06-.8,4.35-.76,6.38.1,2.03.86,3.65,2.48,4.5,4.52.45,1.05.67,2.18.67,3.32Z"/>
    <g class="cls-2">
      <g class="cls-2">
        <path class="cls-1" d="m13.3,1.49c-1.9,1.75-3.2,4.05-3.75,6.57-.06-.13-.14-.26-.24-.36-.1-.1-.23-.18-.36-.24-.28-.11-.6-.11-.89,0-.14.05-.26.14-.36.24-.1.1-.18.23-.24.36-.06.14-.09.29-.08.44-.03-1.55.29-3.08.94-4.48s1.62-2.63,2.82-3.6c.14.04.28.09.42.15.62.24,1.21.55,1.75.92Z"/>
      </g>
    </g>
    <g class="cls-3">
      <g class="cls-3">
        <path class="cls-1" d="m7.88.03c-.13.02-.38.06-.74.14-.71.16-1.4.4-2.05.73-.43.22-.84.47-1.23.75-.43.31-.84.66-1.2,1.05-.39.41-.74.86-1.04,1.34-.32.5-.58,1.02-.78,1.57-.21.55-.36,1.11-.44,1.69-.08.57-.11,1.14-.11,1.72-.02,1.14-.05,2.21-.09,3.13C.1,13.98,0,15.2,0,15.2v-6.7c0-1.14.22-2.27.67-3.32C1.53,3.15,3.15,1.53,5.19.67,6.04.31,6.95.09,7.88.03Z"/>
      </g>
    </g>
  </g>
  <polygon class="cls-1" points="17.47 0 103 0 103 5 26 5 17.47 0"/>
  <g>
    <path class="cls-1" d="m32.97,27.22c-.7,0-1.32-.08-1.89-.25-.56-.17-1.06-.41-1.49-.73s-.82-.69-1.17-1.13l1.56-1.77c.51.68,1.01,1.13,1.52,1.36.51.23,1.04.35,1.58.35.27,0,.52-.03.74-.11.22-.07.39-.17.51-.31.12-.14.18-.31.18-.51,0-.15-.04-.29-.11-.41-.08-.12-.18-.23-.31-.32-.13-.09-.29-.17-.47-.25-.18-.08-.37-.14-.58-.2s-.41-.1-.62-.14c-.59-.13-1.1-.29-1.53-.48s-.79-.43-1.08-.7c-.29-.28-.5-.6-.64-.95-.14-.36-.21-.76-.21-1.2,0-.47.11-.91.33-1.31s.51-.74.88-1.03.79-.51,1.28-.67c.49-.16.99-.23,1.51-.23.7,0,1.3.07,1.79.22.5.15.93.36,1.29.63.36.27.66.6.92.98l-1.59,1.53c-.21-.26-.44-.48-.69-.65-.25-.17-.51-.3-.79-.39-.28-.09-.56-.14-.86-.14s-.56.04-.78.11-.39.18-.51.32-.18.3-.18.49c0,.17.05.32.15.44.1.12.24.23.41.33.17.1.37.18.59.24.22.07.45.12.7.16.55.11,1.06.26,1.51.44.45.18.84.4,1.17.67.33.26.58.57.76.93.18.36.26.78.26,1.25,0,.74-.18,1.36-.54,1.87s-.85.9-1.47,1.17-1.34.4-2.14.4Z"/>
    <path class="cls-1" d="m43.53,27.16c-.88,0-1.66-.18-2.35-.54-.69-.36-1.23-.85-1.61-1.48-.39-.63-.58-1.34-.58-2.15v-6.53h2.6v6.39c0,.38.09.73.26,1.04.17.31.4.55.7.73.29.18.62.27.98.27.38,0,.72-.09,1.02-.27.3-.18.54-.42.72-.73.18-.31.27-.65.27-1.04v-6.39h2.51v6.53c0,.81-.19,1.52-.58,2.15-.39.63-.93,1.12-1.61,1.48-.69.36-1.46.54-2.33.54Z"/>
    <path class="cls-1" d="m50.64,27.07v-10.6h2.57v8.33h4.73v2.27h-7.3Z"/>
    <path class="cls-1" d="m59.87,27.07v-10.6h7.39v2.2h-4.89v6.21h5.04v2.2h-7.54Zm1.21-4.35v-2.09h5.5v2.09h-5.5Z"/>
    <path class="cls-1" d="m69.64,27.07v-10.6h2.3l3.86,6.28-1.65-.02,3.91-6.27h2.21v10.6h-2.5v-3.3c0-.91.02-1.73.07-2.45s.12-1.45.24-2.17l.29.79-2.94,4.56h-1l-2.88-4.53.29-.82c.11.68.19,1.37.24,2.08.04.71.07,1.56.07,2.54v3.3h-2.5Z"/>
    <path class="cls-1" d="m81.59,27.07l4.19-10.6h2.18l4.16,10.6h-2.6l-2-5.38c-.08-.21-.16-.44-.24-.68-.08-.24-.16-.49-.24-.75-.08-.26-.16-.51-.23-.76-.08-.25-.14-.48-.19-.69h.45c-.06.24-.13.48-.2.73-.08.24-.15.48-.23.72-.08.24-.16.47-.25.71s-.18.48-.26.73l-2,5.36h-2.54Zm2-2.03l.8-1.94h4.88l.79,1.94h-6.47Z"/>
    <path class="cls-1" d="m93.44,27.07v-10.6h2.3l5.56,7.57-.5-.08c-.05-.33-.09-.65-.12-.95-.03-.3-.06-.6-.08-.89-.02-.29-.04-.59-.06-.89-.01-.3-.02-.63-.03-.98,0-.35,0-.74,0-1.15v-2.62h2.5v10.6h-2.33l-5.8-7.81.77.11c.05.48.09.9.13,1.23.03.34.07.64.09.9.03.26.04.5.05.71s.02.42.02.63c0,.21,0,.44,0,.69v3.54h-2.5Z"/>
  </g>
</svg>